# xmcd
#
# Track frame offsets:
#	150
#	16113
#	32920
#	42314
#	57859
#	72194
#	86495
#	99434
#	108640
#	118845
#	134237
#	150968
#	165866
#	179752
#	193668
#	201902
#	213877
#	227752
#	240076
#	254977
#
# Disc length: 3590 seconds
#
# Revision: 0
# Processed by: cddbd v1.5.2PL0 Copyright (c) Steve Scherf et al.
# Submitted via: EasyCDDAExtractor 16.0.6.1
#
DISCID=160e0414
DTITLE=Συλλογικός δίσκος - Όλα τα ρεμπέτικα 02
DYEAR=2008
DGENRE=Ρεμπέτικη
TTITLE0=Καζαντζίδης Στέλιος - Το καπηλειό [Γιώργος Μητσάκης]
TTITLE1=Γλυκερία - Της γερακίνας γιός [Βασίλης Τσιτσάνης-Κώστας Βίρβος]
TTITLE2=Πουλόπουλος Γιάννης - Τα ματόκλαδά σου λάμπουν [Μάρκος Βαμβακάρης]
TTITLE3=Μπέλλου Σωτηρία - Νύχτωσε χωρίς φεγγάρι [Απόστολος Καλδάρας]
TTITLE4=Αγγελόπουλος Μανώλης - Μέσ' στης Πεντέλης τα βουνά [Στάτος Παγιουμτζής
TTITLE4=Νίκος Βασιλάκης]
TTITLE5=Πάνου Πόλυ - Στο Πειραιά συννέφιασε [Γιώργος Μητσάκης]
TTITLE6=Γκόγκος Δημήτρης ή Μπαγιαντέρας - Χατζηκυριάκειο [Δημ. Γκόγκος Μπαγιαν
TTITLE6=τέρας]
TTITLE7=Χρυσάφη Άννα - Μπαξέ Τσιφλίκι [Βασίλης Τσιτσάνης]
TTITLE8=Ιακωβίδης Αγάθωνας-Γλυκερία - Τα παιδιά της γειτονιάς σου [Παραδ., δια
TTITLE8=σκ. Μ. Βαμβακάρης]
TTITLE9=Τσέρτος Μπάμπης - Πίνω και μεθώ [Σπύρος Περιστέρης]
TTITLE10=Αλεξανδρής Γ.-Χαλκιάς Θ.-Κανά Μελίνα - Χωρίσαμε ένα δειλινό [Βασίλης 
TTITLE10=Τσιτσάνης]
TTITLE11=Γκολές Μπάμπης-Ιακωβίδης Αγάθωνας - Τα ζηλιάρικά σου μάτια [Μάρκος Βα
TTITLE11=μβακάρης]
TTITLE12=Μουφλουζέλης Γιώργος - Πού 'σουν, μάγκα, το χειμώνα [Γιώργος Μουφλουζ
TTITLE12=έλης]
TTITLE13=Νταράλας Λουκάς - Το βουνό [Λουκάς Νταράλας-Βαγγέλης Πρέκας]
TTITLE14=Εσκενάζυ Ρόζα - Τα ματάκια σου τα δυό [Γιάννης Δραγάτσης Ογδοντάκης]
TTITLE15=Καπλάνης Κώστας - Το μπαγλαμαδάκι [Κώστας Καπλάνης-Στράτος Παγιουμτζή
TTITLE15=ς]
TTITLE16=Γενίτσαρης Μιχάλης - Γέμισε, μάγκα, τον λουλά [Μιχάλης Γενίτσαρης]
TTITLE17=Μητσάκης Γιώργος - Απόψε είναι βαριά [Γιώργος Μητσάκης]
TTITLE18=Τσιτσάνης Βασίλης-Νίνου Μαρίκα - Θα κάνω ντου βρε πονηρή [Βασίλης Τσι
TTITLE18=τσάνης-Κώστας Βίρβος]
TTITLE19=Παγιουμτζής Στράτος-Περπινιάδης Στελλάκης - Να πάμε για την Βούλα [Βα
TTITLE19=σίλης Τσιτσάνης]
EXTD=
EXTT0=
EXTT1=
EXTT2=
EXTT3=
EXTT4=
EXTT5=
EXTT6=
EXTT7=
EXTT8=
EXTT9=
EXTT10=
EXTT11=
EXTT12=
EXTT13=
EXTT14=
EXTT15=
EXTT16=
EXTT17=
EXTT18=
EXTT19=
PLAYORDER=
